<svg xmlns="http://www.w3.org/2000/svg" width="1418" height="632" viewBox="0 0 1418 632"><g transform="translate(9)"><circle cx="43" cy="45" r="5"/><circle cx="93" cy="79" r="5"/><circle cx="151" cy="45" r="5"/><circle cx="219" cy="52" r="5"/><circle cx="297" cy="5" r="5"/><circle cx="294" cy="71" r="5"/><circle cx="359" cy="45" r="5"/><circle cx="410" cy="79" r="5"/><circle cx="467" cy="45" r="5"/><circle cx="535" cy="52" r="5"/><circle cx="612" cy="5" r="5"/><circle cx="610" cy="71" r="5"/><circle cx="675" cy="45" r="5"/><circle cx="657" cy="127" r="5"/><circle cx="637" cy="182" r="5"/><circle cx="713" cy="186" r="5"/><circle cx="748" cy="142" r="5"/><circle cx="726" cy="79" r="5"/><circle cx="782" cy="45" r="5"/><circle cx="777" cy="117" r="5"/><circle cx="795" cy="206" r="5"/><circle cx="844" cy="239" r="5"/><circle cx="873" cy="185" r="5"/><circle cx="874" cy="117" r="5"/><circle cx="851" cy="52" r="5"/><circle cx="929" cy="5" r="5"/><circle cx="926" cy="71" r="5"/><circle cx="992" cy="45" r="5"/><circle cx="1041" cy="79" r="5"/><circle cx="973" cy="127" r="5"/><circle cx="953" cy="182" r="5"/><circle cx="933" cy="231" r="5"/><circle cx="895" cy="286" r="5"/><circle cx="981" cy="278" r="5"/><circle cx="929" cy="321" r="5"/><circle cx="851" cy="368" r="5"/><circle cx="926" cy="387" r="5"/><circle cx="992" cy="361" r="5"/><circle cx="1041" cy="395" r="5"/><circle cx="1098" cy="361" r="5"/><circle cx="1093" cy="433" r="5"/><circle cx="1033" cy="292" r="5"/><circle cx="1081" cy="292" r="5"/><circle cx="1062" cy="240" r="5"/><circle cx="1029" cy="186" r="5"/><circle cx="1064" cy="142" r="5"/><circle cx="1093" cy="117" r="5"/><circle cx="1098" cy="45" r="5"/><circle cx="1167" cy="52" r="5"/><circle cx="1246" cy="5" r="5"/><circle cx="1241" cy="71" r="5"/><circle cx="1190" cy="117" r="5"/><circle cx="1190" cy="185" r="5"/><circle cx="1269" cy="182" r="5"/><circle cx="1289" cy="127" r="5"/><circle cx="1307" cy="45" r="5"/><circle cx="1357" cy="79" r="5"/><circle cx="1379" cy="142" r="5"/><circle cx="1345" cy="187" r="5"/><circle cx="1409" cy="117" r="5"/><circle cx="1111" cy="206" r="5"/><circle cx="1147" cy="306" r="5"/><circle cx="1159" cy="239" r="5"/><circle cx="1212" cy="286" r="5"/><circle cx="1167" cy="368" r="5"/><circle cx="874" cy="433" r="5"/><circle cx="973" cy="443" r="5"/><circle cx="874" cy="501" r="5"/><circle cx="953" cy="498" r="5"/><circle cx="933" cy="547" r="5"/><circle cx="844" cy="556" r="5"/><circle cx="895" cy="602" r="5"/><circle cx="832" cy="622" r="5"/><circle cx="981" cy="594" r="5"/><circle cx="1028" cy="502" r="5"/><circle cx="1064" cy="458" r="5"/><circle cx="1063" cy="556" r="5"/><circle cx="1111" cy="523" r="5"/><circle cx="1081" cy="607" r="5"/><circle cx="1159" cy="556" r="5"/><circle cx="1190" cy="501" r="5"/><circle cx="1190" cy="433" r="5"/><circle cx="1147" cy="622" r="5"/><circle cx="1212" cy="602" r="5"/><circle cx="1248" cy="547" r="5"/><circle cx="1297" cy="594" r="5"/><circle cx="1345" cy="502" r="5"/><circle cx="1379" cy="458" r="5"/><circle cx="1379" cy="556" r="5"/><circle cx="1350" cy="608" r="5"/><circle cx="1397" cy="608" r="5"/><circle cx="1409" cy="433" r="5"/><circle cx="1397" cy="292" r="5"/><circle cx="1269" cy="498" r="5"/><circle cx="1289" cy="443" r="5"/><circle cx="1243" cy="387" r="5"/><circle cx="1246" cy="321" r="5"/><circle cx="1248" cy="231" r="5"/><circle cx="1297" cy="278" r="5"/><circle cx="1307" cy="361" r="5"/><circle cx="1357" cy="395" r="5"/><circle cx="1350" cy="292" r="5"/><circle cx="1379" cy="239" r="5"/><circle cx="1033" cy="608" r="5"/><circle cx="746" cy="240" r="5"/><circle cx="764" cy="292" r="5"/><circle cx="782" cy="361" r="5"/><circle cx="832" cy="306" r="5"/><circle cx="559" cy="117" r="5"/><circle cx="558" cy="185" r="5"/><circle cx="462" cy="117" r="5"/><circle cx="431" cy="142" r="5"/><circle cx="397" cy="186" r="5"/><circle cx="431" cy="239" r="5"/><circle cx="478" cy="206" r="5"/><circle cx="528" cy="239" r="5"/><circle cx="515" cy="306" r="5"/><circle cx="579" cy="286" r="5"/><circle cx="535" cy="368" r="5"/><circle cx="610" cy="387" r="5"/><circle cx="612" cy="321" r="5"/><circle cx="665" cy="278" r="5"/><circle cx="675" cy="361" r="5"/><circle cx="718" cy="292" r="5"/><circle cx="726" cy="395" r="5"/><circle cx="748" cy="458" r="5"/><circle cx="777" cy="433" r="5"/><circle cx="795" cy="523" r="5"/><circle cx="748" cy="556" r="5"/><circle cx="718" cy="607" r="5"/><circle cx="765" cy="607" r="5"/><circle cx="558" cy="433" r="5"/><circle cx="558" cy="501" r="5"/><circle cx="657" cy="443" r="5"/><circle cx="637" cy="498" r="5"/><circle cx="617" cy="547" r="5"/><circle cx="665" cy="594" r="5"/><circle cx="713" cy="502" r="5"/><circle cx="528" cy="556" r="5"/><circle cx="579" cy="602" r="5"/><circle cx="515" cy="622" r="5"/><circle cx="617" cy="231" r="5"/><circle cx="341" cy="127" r="5"/><circle cx="321" cy="182" r="5"/><circle cx="349" cy="278" r="5"/><circle cx="402" cy="292" r="5"/><circle cx="360" cy="361" r="5"/><circle cx="410" cy="395" r="5"/><circle cx="467" cy="361" r="5"/><circle cx="462" cy="433" r="5"/><circle cx="431" cy="458" r="5"/><circle cx="478" cy="523" r="5"/><circle cx="431" cy="557" r="5"/><circle cx="402" cy="608" r="5"/><circle cx="449" cy="608" r="5"/><circle cx="449" cy="292" r="5"/><circle cx="301" cy="231" r="5"/><circle cx="297" cy="321" r="5"/><circle cx="294" cy="387" r="5"/><circle cx="242" cy="433" r="5"/><circle cx="242" cy="501" r="5"/><circle cx="211" cy="556" r="5"/><circle cx="200" cy="622" r="5"/><circle cx="263" cy="602" r="5"/><circle cx="301" cy="547" r="5"/><circle cx="321" cy="498" r="5"/><circle cx="349" cy="594" r="5"/><circle cx="397" cy="502" r="5"/><circle cx="341" cy="443" r="5"/><circle cx="211" cy="239" r="5"/><circle cx="263" cy="286" r="5"/><circle cx="200" cy="306" r="5"/><circle cx="219" cy="368" r="5"/><circle cx="242" cy="117" r="5"/><circle cx="242" cy="185" r="5"/><circle cx="163" cy="206" r="5"/><circle cx="114" cy="240" r="5"/><circle cx="86" cy="292" r="5"/><circle cx="33" cy="278" r="5"/><circle cx="43" cy="361" r="5"/><circle cx="133" cy="292" r="5"/><circle cx="151" cy="361" r="5"/><circle cx="146" cy="433" r="5"/><circle cx="163" cy="523" r="5"/><circle cx="133" cy="608" r="5"/><circle cx="116" cy="458" r="5"/><circle cx="114" cy="556" r="5"/><circle cx="86" cy="608" r="5"/><circle cx="33" cy="594" r="5"/><circle cx="81" cy="503" r="5"/><circle cx="25" cy="443" r="5"/><circle cx="5" cy="498" r="5"/><circle cx="93" cy="395" r="5"/><circle cx="146" cy="117" r="5"/><circle cx="116" cy="142" r="5"/><circle cx="25" cy="127" r="5"/><circle cx="5" cy="182" r="5"/><circle cx="81" cy="186" r="5"/></g><path stroke="#000" d="M-2.5 9.5l52 34m-51 42l32 39m6 5l51 55m-34-138l49 33m-104-2l123 64m-17-61l48 35m5 4l90 64m-142-106l52-31m75 7l67 16m-141 44l67-59m-189 71l63-44m-101 101h12m-12 316h12m8-316l68 4m-88 95l40-3m7 1l46 12m37-151l25-20m-156-53l52-21m-51 78l32 3m128-10h89m7 1l92 9m-348 21l32-19m62 53l30-38m-26 144l25-45m22 45l27-79m36 92l-34-92m44 27l-42-28m95 74l-46-41m45 46l-55 17m141-26l-78 7m-233-11l45-85m39 49l42-31m52 28l27-47m-39 114l10-59m55 39l33-49m47 42l-42-42m-7 86l-31-31m-3-6l-20-94m55 40l-52-41m-155 105h38m9 1l59 11m-30-99l72-20m6-2l93-54m-332 50l18-48m-34 87l14-33m-14 129l40-34m271 38l45-38m-301-237l29-47m227 11l56 36m-59 26l59-23m4-3l29-47m-236 46l38-44m-98 77l-7-76m28 139l-20-56m19 154l3-91m44 58l-42-59m-7 92l-28-46m-54 85l-40-39m96 53l-5-100m272 90l46 12m5-3l25-45m22 45l27-79m36 92l-34-92m44 27l-42-28m95 74l-46-41m45 46l-55 17m141-26l-78 7m-233-11l45-85m133 46l27-47m-27 363l27-47m-39-202l10-59m55 39l33-49m47 42l-42-42m-7 86l-31-31m-3-6l-20-94m55 40l-52-41m-155 105h38m9 1l59 11m104 14l45-38m-260 9l-5-100m272 90l46 12m5-3l25-45m22 45l27-79m36 92l-34-92m44 27l-42-28m95 74l-46-41m45 46l-55 17m141-26l-78 7m-233-11l45-85m133 46l27-47m-39 114l10-59m55 39l33-49m47 42l-42-42m-7 86l-31-31m-3-6l-20-94m55 40l-52-41m-155 105h38m7 1l61 11m104 14l45-38m-260 9l-5-100m272 90l46 12m5-3l25-45m22 45l27-79m36 92l-34-92m44 27l-42-28m95 74l-46-41m45 46l-55 17m141-26l-78 7m-233-11l45-85m133 46l27-47m-39 114l10-59m55 39l33-49m47 42l-42-42m-7 86l-31-31m-3-6l-20-94m55 40l-52-41m-155 105h38m9 1l59 11m104 14l45-38m-260 9l-5-100m272 90l46 12m5-3l25-45m22 45l27-79m-127 65l45-85m11 103h38m9 1l59 11m-111-15l-5-100m-914-51l-20-56m20 373l-20-56m336-261l-20-56m-579 32l4-66m10 154l-15-81m94-7l-21-59m-69-12l-11-46m81 52l27-50m-6 182l1-61m52-53l2-59m41 116l-41-50m47 55l51 55m70-65l90 64m-309 1l72-2m8 0l68 4m72-69h89m7 1l92 9m-254 55l30-38m5 94l42-31m6-2l72-20m6-2l93-54m-332 50l18-48m-37 96l17-42m110 51l3-91m44 58l-42-59m-7 92l-28-46m78 12l-15-81m94-7l-21-59m22 126l1-61m315 61l1-61m-221 4l-41-50m47 55l51 55m70-65l90 64m-309 1l72-2m8 0l68 4m72-69h89m7 1l92 9m-254 55l30-38m5 94l42-31m6-2l72-20m6-2l93-54m-332 50l18-48m-37 96l17-42m110 51l3-91m44 58l-42-59m-7 92l-28-46m78 12l-15-81m94-7l-21-59m118 69l-41-50m261 107l1-61m-215 9l51 55m70-65l90 64m-309 1l72-2m8 0l68 4m72-69h89m7 1l92 9m-254 55l30-38m5 94l42-31m6-2l72-20m6-2l93-54m-332 50l18-48m-37 96l17-42m110 51l3-91m44 58l-42-59m-7 92l-28-46m260-61l51 55m-149 0l72-2m8 0l68 4m6-4l30-38m5 94l42-31m-155-28l18-48m-37 96l17-42m110 51l3-91m44 58l-42-59m-7 92l-28-46m-238 12l-15-81m94-7l-21-59m118 69l-41-50m-944-72l3-3m-86 50l-15-50m92 3l-2-3m68 47l49 33m-113-7l132 69m-17-61l48 35m-47-38l52-31m75 7l67 16m-141 44l67-59m-189 71l63-44m29 59l25-20m291 20l25-20m291 20l25-20m291 20l25-20m-792-113l56 36m-59 26l59-23m4-3l29-47m-236 46l38-44m-98 77l-7-76m61 115l4-66m-1-5l-11-46m81 52l27-50m47 68l2-59m4-6l3-3m-86 50l-15-50m92 3l-2-3m68 47l49 33m-113-7l132 69m-17-61l48 35m-47-38l52-31m75 7l67 16m-141 44l67-59m-189 71l63-44m210-74l56 36m-59 26l59-23m4-3l29-47m-236 46l38-44m-98 77l-7-76m61 115l4-66m-1-5l-11-46m81 52l27-50m47 68l2-59m4-6l3-3m-86 50l-15-50m92 3l-2-3m138 139l-20-56m-50-36l49 33m267-33l49 33m-429-7l132 69m-17-61l48 35m-47-38l52-31m75 7l67 16m-141 44l67-59m-189 71l63-44m210-74l56 36m-59 26l59-23m4-3l29-47m-236 46l38-44m-98 77l-7-76m61 115l4-66m-1-5l-11-46m291 141l-20-56m-114-10l132 69m-17-61l48 35m-47-38l52-31m-121 79l63-44m3-6l-7-76m64 44l-11-46m-235 52l27-50m47 68l2-59m4-6l3-3m-86 50l-15-50m92 3l-2-3m-1252 327l52 34m-51 42l32 39m6 5l51 55m-34-138l49 33m-104-2l123 64m-17-61l48 35m5 4l90 64m-142-106l52-31m75 7l67 16m-141 44l67-59m-189 71l63-44m-81 101l68 4m-88 95l40-3m7 1l46 12m37-151l25-20m-156-53l52-21m-51 78l32 3m128-10h89m7 1l92 9m-348 21l32-19m62 53l30-38m-26 144l25-45m22 45l27-79m36 92l-34-92m44 27l-42-28m95 74l-46-41m45 46l-55 17m141-26l-78 7m-233-11l45-85m39 49l42-31m52 28l27-47m-39 114l10-59m55 39l33-49m47 42l-42-42m-7 86l-31-31m-3-6l-20-94m55 40l-52-41m-155 105h38m9 1l59 11m-30-99l72-20m6-2l93-54m-332 50l18-48m-34 87l14-33m-14 129l40-34m271 38l45-38m-301-237l39-66m217 30l56 36m-59 26l59-23m4-3l39-64m-246 63l45-52m-105 85l-8-98m29 161l-20-56m19 154l3-91m44 58l-42-59m-7 92l-28-46m-54 85l-40-39m96 53l-5-100m272 90l46 12m5-3l25-45m22 45l27-79m36 92l-34-92m44 27l-42-28m95 74l-46-41m45 46l-55 17m141-26l-78 7m-233-11l45-85m121 113l10-59m55 39l33-49m47 42l-42-42m-7 86l-31-31m-3-6l-20-94m55 40l-52-41m-155 105h38m9 1l59 11m104 14l45-38m-260 9l-5-100m272 90l46 12m5-3l25-45m22 45l27-79m36 92l-34-92m97 73l-46-41m45 46l-55 17m141-26l-78 7m-233-11l45-85m133 46l27-47m-39 114l10-59m55 39l33-49m47 42l-42-42m-7 86l-31-31m-3-6l-20-94m55 40l-52-41m-155 105h38m9 1l59 11m104 14l45-38m-260 9l-5-100m272 90l46 12m5-3l25-45m22 45l27-79m36 92l-34-92m44 27l-42-28m95 74l-46-41m45 46l-55 17m141-26l-78 7m-233-11l45-85m133 46l27-47m-39 114l10-59m55 39l33-49m47 42l-42-42m-7 86l-31-31m-3-6l-20-94m55 40l-52-41m-155 105h38m9 1l59 11m104 14l45-38m-260 9l-5-100m272 90l46 12m5-3l25-45m22 45l27-79m-127 65l45-85m11 103h38m9 1l59 11m-111-15l-5-100m-598-51l-20-56m-579 32l4-66m10 154l-15-81m94-7l-21-59m-69-12l-16-66m86 72l41-78m-20 210l1-61m52-53l2-59m41 116l-41-50m47 55l51 55m70-65l90 64m-309 1l72-2m8 0l68 4m72-69h89m7 1l92 9m-254 55l30-38m5 94l42-31m6-2l72-20m6-2l93-54m-332 50l18-48m-37 96l17-42m110 51l3-91m44 58l-42-59m-7 92l-28-46m78 12l-15-81m94-7l-21-59m22 126l1-61m315 61l1-61m-221 4l-41-50m47 55l51 55m70-65l90 64m-309 1l72-2m8 0l68 4m72-69h89m7 1l92 9m-254 55l30-38m5 94l42-31m6-2l72-20m6-2l93-54m-332 50l18-48m-37 96l17-42m110 51l3-91m44 58l-42-59m-7 92l-28-46m78 12l-15-81m94-7l-21-59m118 69l-41-50m261 107l1-61m-215 9l51 55m70-65l90 64m-309 1l72-2m8 0l68 4m72-69h89m7 1l92 9m-254 55l30-38m5 94l42-31m6-2l72-20m6-2l93-54m-332 50l18-48m-37 96l17-42m110 51l3-91m44 58l-42-59m-7 92l-28-46m260-61l51 55m-149 0l72-2m8 0l68 4m6-4l30-38m5 94l42-31m-155-28l18-48m-37 96l17-42m110 51l3-91m44 58l-42-59m-7 92l-28-46m-238 12l-15-81m94-7l-21-59m118 69l-41-50m-1027-25l-17-58m160 55l49 33m-113-7l132 69m-17-61l48 35m-47-38l52-31m75 7l67 16m-141 44l67-59m-189 71l63-44m29 59l25-20m291 20l25-20m291 20l25-20m291 20l25-20m-793-114l57 37m-59 26l59-23m4-3l40-66m-247 65l43-51m-103 84l-8-96m62 135l4-66m-1-5l-16-64m86 70l41-77m33 95l2-59m-79 41l-17-57m160 54l49 33m-113-7l132 69m-17-61l48 35m-47-38l52-31m75 7l67 16m-141 44l67-59m-189 71l63-44m210-74l56 36m-59 26l59-23m4-3l39-64m-246 63l44-51m-104 84l-8-98m62 137l4-66m-1-5l-16-66m86 72l41-78m33 96l2-59m-79 41l-17-57m230 146l-20-56m-50-36l49 33m267-33l49 33m-429-7l132 69m-17-61l48 35m-47-38l52-31m75 7l67 16m-141 44l67-59m-189 71l63-44m210-74l56 36m-59 26l59-23m4-3l39-66m-246 65l44-51m-104 84l-7-96m61 135l4-66m-1-5l-16-66m296 161l-20-56m-114-10l132 69m-17-61l48 35m-47-38l52-31m-121 79l63-44m3-6l-7-98m64 66l-16-66m-230 72l41-78m33 96l2-59m-79 41l-17-57m-1104 368l39-66m277 66l39-64m-246 63l45-52m-105 85l-8-98m65 66l-16-66m86 72l41-78m-44 78l-17-58m476 52l40-66m-247 65l43-51m-103 84l-8-96m65 64l-16-64m86 70l41-77m-44 77l-17-57m476 51l39-64m-246 63l44-51m-104 84l-8-98m65 66l-16-66m86 72l41-78m-44 78l-17-57m476 51l39-66m-246 65l44-51m-104 84l-7-96m64 64l-16-66m275 98l-7-98m64 66l-16-66m-230 72l41-78m-44 78l-17-57" stroke-linecap="square"/></svg>